<svg aria-hidden="true" style="position:absolute;width:0;height:0" xmlns="http://www.w3.org/2000/svg" overflow="hidden"><defs><symbol id="icon-accaunt" viewBox="0 0 32 32">
<path d="M16 0c8.837 0 16 7.163 16 16s-7.163 16-16 16c-8.837 0-16-7.163-16-16s7.163-16 16-16z"></path>
</symbol>
<symbol id="icon-appointments" viewBox="0 0 32 32"><path stroke-width="2.133" d="M7.467 0v10.667M24.533 0v10.667M6.4 16h6.4m12.8 0h-6.4M6.4 22.4h6.4m6.4 0h6.4M3.2 5.333h25.6c1.178 0 2.133.955 2.133 2.133v21.333a2.133 2.133 0 01-2.133 2.133H3.2a2.133 2.133 0 01-2.133-2.133V7.466c0-1.178.955-2.133 2.133-2.133z"/></symbol><symbol id="icon-area-chart-alt" viewBox="0 0 32 32"><path d="M1.067 30.933H0V32h1.067v-1.067zm3.2-6.4V25.6H6.4v-1.067H4.267zM32 5.333V4.266h-2.133v1.067H32zM0 0v30.933h2.133V0H0zm1.067 32H32v-2.133H1.067V32zM6.4 24.533c0-3.103.52-6.144 1.508-8.367 1.004-2.259 2.328-3.367 3.825-3.367v-2.133c-2.769 0-4.645 2.093-5.775 4.633-1.145 2.577-1.692 5.936-1.692 9.233h2.133zM11.733 12.8c.684 0 1.369.336 2.143 1.05.781.721 1.522 1.703 2.337 2.79.785 1.046 1.644 2.198 2.596 3.077.96.886 2.141 1.616 3.59 1.616V19.2c-.684 0-1.369-.336-2.143-1.05-.781-.721-1.522-1.703-2.337-2.79-.785-1.046-1.644-2.198-2.596-3.077-.96-.886-2.141-1.616-3.59-1.616V12.8zM22.4 21.333c2.61 0 5.04-1.627 6.768-4.364C30.902 14.224 32 10.28 32 5.333h-2.133c0 4.653-1.035 8.175-2.502 10.497-1.472 2.33-3.308 3.37-4.965 3.37v2.133z"/></symbol><symbol id="icon-cross" viewBox="0 0 30 32"><path d="M15.718 13.197h12.546v3.172H15.718v13.65h-3.427v-13.65H0v-3.172h12.291V0h3.427v13.197z"/></symbol><symbol id="icon-gear" viewBox="0 0 32 32"><path stroke-linejoin="round" stroke-linecap="square" stroke-width="2.133" d="M12.681 1.067l-.183.932-.702 3.409a11.774 11.774 0 00-3.059 1.757l-3.43-1.147-.922-.286-.478.823-2.362 3.948-.478.823.7.612 2.654 2.258c-.096.591-.22 1.175-.22 1.795s.124 1.205.22 1.795l-2.654 2.258-.7.612.478.823 2.362 3.949.478.825.922-.288 3.43-1.147c.919.72 1.937 1.328 3.059 1.757l.702 3.409.183.932h6.637l.186-.932.7-3.409a11.774 11.774 0 003.059-1.757l3.43 1.147.922.288.48-.825 2.359-3.949.48-.823-.702-.612-2.654-2.258c.098-.591.22-1.175.22-1.795s-.122-1.204-.22-1.795l2.654-2.258.702-.612-.48-.823-2.359-3.948-.48-.823-.922.286-3.43 1.147a11.774 11.774 0 00-3.059-1.757l-.7-3.409-.186-.932h-6.637z"/><path stroke-linejoin="round" stroke-linecap="square" stroke-width="2.133" d="M20.266 15.99a4.266 4.266 0 01-8.534 0 4.266 4.266 0 018.534 0z"/></symbol><symbol id="icon-info" viewBox="0 0 30 32"><path d="M14 3.008v1h2v-1h-2zm2-.02v-1h-2v1h2zm0 24.02v-19h-2v19h2zm0-24v-.02h-2v.02h2zm-8 7h7v-2H8v2zm-4 18h22v-2H4v2z"/></symbol>
<symbol id="icon-videocam-outline" viewBox="0 0 39 32"><path stroke-linejoin="round" stroke-linecap="round" stroke-width="1.778" d="M29.764 21.447l7.108 6.004c.209.112.439.159.667.137s.449-.112.641-.261c.192-.15.35-.355.459-.596s.167-.512.167-.787V6.066c0-.275-.057-.545-.167-.787s-.267-.447-.459-.596-.412-.24-.641-.261a1.17 1.17 0 00-.667.137l-7.108 6.004c-.18.152-.327.354-.429.589s-.154.495-.154.76V20.1c0 .264.053.525.154.76s.249.437.429.589z"/><path stroke-miterlimit="10" stroke-width="1.778" d="M20.587 29.2H4.774c-1.184-.004-2.319-.57-3.156-1.575S.309 25.259.305 23.838V8.163C.308 6.742.78 5.38 1.618 4.376S3.59 2.805 4.774 2.801h15.854c1.173.004 2.297.566 3.127 1.561s1.297 2.344 1.301 3.752v15.725c-.004 1.421-.475 2.783-1.313 3.787s-1.972 1.571-3.156 1.575z"/><path d="M15.644 22.214v.889h.889v-.889h-.889zm-8.691 0h-.889v.889h.889v-.889zm12.168.008v.889h.889v-.889h-.889zm-6.104-9.779c0 .999-.787 1.776-1.719 1.776v1.778c1.949 0 3.496-1.609 3.496-3.554h-1.778zm-1.718 1.776c-.931 0-1.719-.777-1.719-1.776H7.802c0 1.944 1.547 3.554 3.496 3.554v-1.778zM9.58 12.443c0-.999.787-1.776 1.719-1.776V8.889c-1.949 0-3.496 1.609-3.496 3.554h1.778zm1.719-1.776c.931 0 1.719.777 1.719 1.776h1.778c0-1.944-1.547-3.554-3.496-3.554v1.778zm4.345 10.658H6.953v1.778h8.691v-1.778zm-7.802.889v-.004-.004-.004-.004-.004-.004-.004-.004-.004-.004-.004-.004-.004-.004-.004-.004-.004-.004-.004-.004-.004-.004-.004-.004-.004-.004-.004-.004-.004-.004-.004-.004-.004-.004-.004-.004-.004-.004-.004-.004-.004-.004-.004-.004-.004-.004-.004-.004-.004-.004-.004-.004-.004-.004-.004-.004-.004-.004-.004-.004-.004-.004-.004-.004-.004-.004-.004-.004-.004-.004-.004-.004-.004-.004-.004-.004-.004-.004-.004-.004-.004-.004-.004-.004-.004-.004-.004-.004-.004-.004-.004-.004-.004-.004-.004-.004-.004-.004-.004-.004-.004-.004-.004-.004-.004-.004-.004-.004-.004-.004-.004-.004-.004-.004-.004-.004-.004-.004-.004-.004-.004-.004-.004-.004-.004-.004-.004-.004-.004-.004-.004-.004-.004-.004-.004-.004-.004-.004-.004-.004-.004-.004-.004-.004-.004-.004-.004-.004-.004-.004-.004-.004-.004-.004-.004-.004-.004-.004-.004-.004-.004-.004-.004-.004-.004-.004-.004-.004-.004-.004-.004-.004-.004-.004-.004-.004-.004-.004-.004-.004-.004-.004-.004-.004-.004-.003-.004-.004-.004-.004-.004-.004-.004-.004-.004-.004-.004-.004-.003-.004-.004-.004-.004-.004-.004-.004-.003-.004-.004-.004-.004-.004-.003-.004-.004-.004-.004-.003-.004-.004-.004-.003-.004-.004-.004-.003-.004-.004-.004-.003-.004-.004-.003-.004-.004-.004-.003-.004-.004-.003-.004-.004-.003-.004-.004-.003-.004-.003-.004-.004-.003-.004-.003-.004-.004-.003-.004-.003-.004-.003-.004-.004-.003-.004-.003-.004-.003-.004-.003-.004-.003-.004-.003-.004-.003-.004-.003-.004-.003-.003-.004-.003-.004-.003-.004-.003-.003-.004-.003-.004-.003-.003-.004-.003-.003-.004-.003-.003-.004-.003-.003-.004-.003-.003-.004-.003-.003-.003-.004-.003-.003-.003-.004-.003-.003-.003-.004-.003-.003-.003-.003-.004-.003-.003-.003-.003-.004-.003-.003-.003-.003-.003-.003-.003-.004-.003-.003-.003-.003-.003-.003-.003-.003-.003-.003-.003-.003-.004-.003-.003-.003-.003-.003-.003-.003-.003-.003-.003-.003-.003-.003-.003-.003-.003-.003-.003-.003-.003-.003-.003-.003-.003-.003-.003-.003-.003-.003-.003-.003-.003-.003-.003-.003-.003-.003-.003-.003-.003-.003-.003-.003-.003-.003-.003-.003-.003-.003-.003-.003-.003-.003-.003-.003-.003-.003-.003-.003-.003-.003-.003-.003-.003-.003-.003-.003-.003-.003-.003-.003-.003-.003-.003-.003-.003-.003-.003-.003-.003-.003-.003-.003-.003-.003-.003-.003-.003-.003-.003-.003-.003-.003-.003-.003-.003-.003-.003-.003-.003-.003-.003-.003-.003-.003-.003-.003-.003-.003-.003-.003-.003-.003-.003-.003-.003-.003-.003-.003-.003-.003-.003-.003-.003-.003-.003-.003-.003-.003-.003-.003-.003-.003-.003-.003-.003-.003-.003-.003-.003-.003-.003-.003-.003-.003-.003-.003-.003-.003-.003-.003-.003-.003-.003-.003-.003-.003-.003-.003-.003-.003-.003-.003-.003H6.064V22.214h1.778zm1.719-3.552h3.477v-1.778H9.561v1.778zm5.195 1.777V22.243h1.778v-.004-.004-.004-.004-.004-.004-.004-.004-.004-.004-.004-.004-.004-.004-.004-.004-.004-.004-.004-.004-.004-.004-.004-.004-.004-.004-.004-.004-.004-.004-.004-.004-.004-.004-.004-.004-.004-.004-.004-.004-.004-.004-.004-.004-.004-.004-.004-.004-.004-.004-.004-.004-.004-.004-.004-.004-.004-.004-.004-.004-.004-.004-.004-.004-.004-.004-.004-.004-.004-.004-.004-.004-.004-.004-.004-.004-.004-.004-.004-.004-.004-.004-.004-.004-.004-.004-.004-.004-.004-.004-.004-.004-.004-.004-.004-.004-.004-.004-.004-.004-.004-.004-.004-.004-.004-.004-.004-.004-.004-.004-.004-.004-.004-.004-.004-.004-.004-.004-.004-.004-.004-.004-.004-.004-.004-.004-.004-.004-.004-.004-.004-.004-.004-.004-.004-.004-.004-.004-.004-.004-.004-.004-.004-.004-.004-.004-.004-.004-.004-.004-.004-.004-.004-.004-.004-.004-.004-.004-.004-.004-.004-.004-.004-.004-.004-.004-.004-.004-.004-.004-.004-.004-.004-.004-.004-.004-.004-.004-.004-.004-.004-.004-.004-.004-.004-.003-.004-.004-.004-.004-.004-.004-.004-.004-.004-.004-.004-.004-.003-.004-.004-.004-.004-.004-.004-.004-.003-.004-.004-.004-.004-.004-.003-.004-.004-.004-.004-.003-.004-.004-.004-.003-.004-.004-.004-.003-.004-.004-.004-.003-.004-.004-.003-.004-.004-.004-.003-.004-.004-.003-.004-.004-.003-.004-.004-.003-.004-.003-.004-.004-.003-.004-.003-.004-.004-.003-.004-.003-.004-.003-.004-.004-.003-.004-.003-.004-.003-.004-.003-.004-.003-.004-.003-.004-.003-.004-.003-.004-.003-.003-.004-.003-.004-.003-.004-.003-.003-.004-.003-.004-.003-.003-.004-.003-.003-.004-.003-.003-.004-.003-.003-.004-.003-.003-.004-.003-.003-.003-.004-.003-.003-.003-.004-.003-.003-.003-.004-.003-.003-.003-.003-.004-.003-.003-.003V21v-.004-.003-.003-.003-.003-.003-.003-.003-.004-.003-.003-.003-.003-.003-.003-.003-.003-.003-.003-.003-.003-.004-.003-.003-.003-.003-.003-.003-.003-.003-.003-.003-.003-.003-.003-.003-.003-.003-.003-.003-.003-.003-.003-.003-.003-.003-.003-.003-.003-.003-.003-.003-.003-.003-.003-.003-.003-.003-.003-.003-.003-.003-.003-.003-.003-.003-.003-.003-.003-.003-.003-.003-.003-.003-.003-.003-.003-.003-.003-.003-.003-.003-.003-.003-.003-.003-.003-.003-.003-.003-.003-.003-.003-.003-.003-.003-.003-.003-.003-.003-.003-.003-.003-.003-.003-.003-.003-.003-.003-.003-.003-.003-.003-.003-.003-.003-.003-.003-.003-.003-.003-.003-.003-.003-.003-.003-.003-.003-.003-.003-.003-.003-.003-.003-.003-.003-.003-.003-.003-.003-.003-.003-.003-.003-.003-.003-.003-.003-.003-.003-.003-.003-.003-.003-.003-.003-.003-.003-.003-.003-.003-.003-.003-.003-.003-.003-.003-.003-.003-.003-.003-.003-.003-.003-.003-.003-.003-.003-.003-.003-.003-.003-.003-.003-.003-.003h-1.778zm-1.719-1.777c.931 0 1.719.777 1.719 1.777h1.778c0-1.945-1.547-3.555-3.496-3.555v1.778zm-5.195 1.777c0-1.001.788-1.777 1.719-1.777v-1.778c-1.949 0-3.496 1.61-3.496 3.555h1.778zm10.39.45v1.333h1.778v-1.333h-1.778zm.889.444h-2.173v1.778h2.173v-1.778zm-2.173-1.777c.69 0 1.284.578 1.284 1.333h1.778c0-1.699-1.352-3.111-3.062-3.111v1.778zM16.514 16c-.45 0-.849-.379-.849-.889h-1.778c0 1.454 1.158 2.667 2.627 2.667V16zm.849-.889c0 .51-.399.889-.849.889v1.778c1.47 0 2.627-1.213 2.627-2.667h-1.778zm-.849-.889c.45 0 .849.379.849.889h1.778c0-1.454-1.157-2.667-2.627-2.667v1.778zm0-1.778c-1.47 0-2.627 1.213-2.627 2.667h1.778c0-.51.399-.889.849-.889v-1.778z"/></symbol></defs></svg>